<mxfile host="app.diagrams.net" agent="Mozilla/5.0 (Windows NT 10.0; Win64; x64) AppleWebKit/537.36 (KHTML, like Gecko) Chrome/130.0.0.0 Safari/537.36" version="24.8.4">
  <diagram name="Page-1" id="yi0q7szGyeR16Hd5-siA">
    <mxGraphModel dx="1050" dy="522" grid="1" gridSize="10" guides="1" tooltips="1" connect="1" arrows="1" fold="1" page="1" pageScale="1" pageWidth="850" pageHeight="1100" math="0" shadow="0">
      <root>
        <mxCell id="0" />
        <mxCell id="1" parent="0" />
        <mxCell id="j4wYKc-_fBmPy-RoNULj-1" value="Customer" style="shape=umlActor;verticalLabelPosition=bottom;verticalAlign=top;html=1;" vertex="1" parent="1">
          <mxGeometry x="82" y="170" width="30" height="60" as="geometry" />
        </mxCell>
        <mxCell id="j4wYKc-_fBmPy-RoNULj-2" value="SearchPage" style="shape=umlBoundary;whiteSpace=wrap;html=1;" vertex="1" parent="1">
          <mxGeometry x="270" y="160" width="100" height="80" as="geometry" />
        </mxCell>
        <mxCell id="j4wYKc-_fBmPy-RoNULj-3" value="Validate" style="ellipse;shape=umlControl;whiteSpace=wrap;html=1;" vertex="1" parent="1">
          <mxGeometry x="495" y="159" width="70" height="80" as="geometry" />
        </mxCell>
        <mxCell id="j4wYKc-_fBmPy-RoNULj-4" value="Catalogue" style="ellipse;shape=umlEntity;whiteSpace=wrap;html=1;" vertex="1" parent="1">
          <mxGeometry x="681" y="158" width="80" height="80" as="geometry" />
        </mxCell>
        <mxCell id="j4wYKc-_fBmPy-RoNULj-8" value="enterAuthorInfo()&lt;div&gt;search()&lt;/div&gt;&lt;div&gt;displaySearchResult()&lt;/div&gt;" style="text;html=1;align=center;verticalAlign=middle;resizable=0;points=[];autosize=1;strokeColor=none;fillColor=none;" vertex="1" parent="1">
          <mxGeometry x="124" y="144" width="140" height="60" as="geometry" />
        </mxCell>
        <mxCell id="j4wYKc-_fBmPy-RoNULj-9" value="createValidateObject()&lt;div&gt;returnSearchResult()&lt;/div&gt;&lt;div&gt;validateSearchCriteria()&lt;/div&gt;" style="text;html=1;align=center;verticalAlign=middle;resizable=0;points=[];autosize=1;strokeColor=none;fillColor=none;" vertex="1" parent="1">
          <mxGeometry x="358" y="140" width="150" height="60" as="geometry" />
        </mxCell>
        <mxCell id="j4wYKc-_fBmPy-RoNULj-10" value="searchBooks(author)&lt;div&gt;returnBookInfo()&lt;/div&gt;" style="text;html=1;align=center;verticalAlign=middle;resizable=0;points=[];autosize=1;strokeColor=none;fillColor=none;" vertex="1" parent="1">
          <mxGeometry x="557" y="144" width="130" height="40" as="geometry" />
        </mxCell>
        <mxCell id="j4wYKc-_fBmPy-RoNULj-11" value="" style="endArrow=none;html=1;rounded=0;dashed=1;" edge="1" parent="1">
          <mxGeometry width="50" height="50" relative="1" as="geometry">
            <mxPoint x="100" y="640" as="sourcePoint" />
            <mxPoint x="100" y="250" as="targetPoint" />
          </mxGeometry>
        </mxCell>
        <mxCell id="j4wYKc-_fBmPy-RoNULj-12" value="" style="endArrow=none;html=1;rounded=0;dashed=1;" edge="1" parent="1">
          <mxGeometry width="50" height="50" relative="1" as="geometry">
            <mxPoint x="330" y="640" as="sourcePoint" />
            <mxPoint x="330" y="240" as="targetPoint" />
          </mxGeometry>
        </mxCell>
        <mxCell id="j4wYKc-_fBmPy-RoNULj-13" value="" style="endArrow=none;html=1;rounded=0;dashed=1;" edge="1" parent="1">
          <mxGeometry width="50" height="50" relative="1" as="geometry">
            <mxPoint x="529.5" y="640" as="sourcePoint" />
            <mxPoint x="529.5" y="240" as="targetPoint" />
          </mxGeometry>
        </mxCell>
        <mxCell id="j4wYKc-_fBmPy-RoNULj-14" value="" style="endArrow=none;html=1;rounded=0;dashed=1;" edge="1" parent="1">
          <mxGeometry width="50" height="50" relative="1" as="geometry">
            <mxPoint x="720.5" y="638" as="sourcePoint" />
            <mxPoint x="720.5" y="238" as="targetPoint" />
          </mxGeometry>
        </mxCell>
        <mxCell id="j4wYKc-_fBmPy-RoNULj-15" value="" style="endArrow=none;html=1;rounded=0;strokeWidth=6;" edge="1" parent="1">
          <mxGeometry width="50" height="50" relative="1" as="geometry">
            <mxPoint x="100" y="500" as="sourcePoint" />
            <mxPoint x="100" y="250" as="targetPoint" />
          </mxGeometry>
        </mxCell>
        <mxCell id="j4wYKc-_fBmPy-RoNULj-16" value="" style="endArrow=none;html=1;rounded=0;strokeWidth=6;" edge="1" parent="1">
          <mxGeometry width="50" height="50" relative="1" as="geometry">
            <mxPoint x="330" y="500" as="sourcePoint" />
            <mxPoint x="330" y="250" as="targetPoint" />
          </mxGeometry>
        </mxCell>
        <mxCell id="j4wYKc-_fBmPy-RoNULj-17" value="" style="endArrow=classic;html=1;rounded=0;" edge="1" parent="1">
          <mxGeometry width="50" height="50" relative="1" as="geometry">
            <mxPoint x="100" y="250" as="sourcePoint" />
            <mxPoint x="330" y="250" as="targetPoint" />
          </mxGeometry>
        </mxCell>
        <mxCell id="j4wYKc-_fBmPy-RoNULj-18" value="enterAuthorInfo(author)" style="text;html=1;align=center;verticalAlign=middle;resizable=0;points=[];autosize=1;strokeColor=none;fillColor=none;" vertex="1" parent="1">
          <mxGeometry x="135" y="226" width="150" height="30" as="geometry" />
        </mxCell>
        <mxCell id="j4wYKc-_fBmPy-RoNULj-19" value="" style="endArrow=classic;html=1;rounded=0;" edge="1" parent="1">
          <mxGeometry width="50" height="50" relative="1" as="geometry">
            <mxPoint x="101" y="271" as="sourcePoint" />
            <mxPoint x="331" y="271" as="targetPoint" />
          </mxGeometry>
        </mxCell>
        <mxCell id="j4wYKc-_fBmPy-RoNULj-20" value="search()" style="text;html=1;align=center;verticalAlign=middle;resizable=0;points=[];autosize=1;strokeColor=none;fillColor=none;" vertex="1" parent="1">
          <mxGeometry x="169" y="248" width="70" height="30" as="geometry" />
        </mxCell>
        <mxCell id="j4wYKc-_fBmPy-RoNULj-21" value="" style="endArrow=none;html=1;rounded=0;strokeWidth=6;" edge="1" parent="1">
          <mxGeometry width="50" height="50" relative="1" as="geometry">
            <mxPoint x="530" y="500" as="sourcePoint" />
            <mxPoint x="530" y="290" as="targetPoint" />
          </mxGeometry>
        </mxCell>
        <mxCell id="j4wYKc-_fBmPy-RoNULj-22" value="" style="endArrow=classic;html=1;rounded=0;" edge="1" parent="1">
          <mxGeometry width="50" height="50" relative="1" as="geometry">
            <mxPoint x="330" y="290" as="sourcePoint" />
            <mxPoint x="530" y="290" as="targetPoint" />
          </mxGeometry>
        </mxCell>
        <mxCell id="j4wYKc-_fBmPy-RoNULj-23" value="createValidateObject(author)" style="text;html=1;align=center;verticalAlign=middle;resizable=0;points=[];autosize=1;strokeColor=none;fillColor=none;" vertex="1" parent="1">
          <mxGeometry x="334" y="265" width="180" height="30" as="geometry" />
        </mxCell>
      </root>
    </mxGraphModel>
  </diagram>
</mxfile>
